<svg width="35" height="46" viewBox="0 0 35 46" fill="none" xmlns="http://www.w3.org/2000/svg">
<path d="M17.5 1C26.6127 1 34 8.3873 34 17.5C34 17.608 33.9972 17.7157 33.9951 17.8232C33.9968 17.882 34 17.9409 34 18V39C34 42.3137 31.3137 45 28 45H7C3.68629 45 1 42.3137 1 39V18C1 17.9409 1.00221 17.882 1.00391 17.8232C1.00184 17.7157 1 17.608 1 17.5C1 8.3873 8.3873 1 17.5 1Z" fill="#FFEF0E"/>
<path d="M33.9951 17.8232L33.4952 17.8136L33.495 17.8257L33.4953 17.8377L33.9951 17.8232ZM34 18H34.5H34ZM34 39H34.5H34ZM28 45V45.5V45ZM7 45V45.5V45ZM1 39H0.5H1ZM1 18H0.5H1ZM1.00391 17.8232L1.5037 17.8377L1.50405 17.8257L1.50381 17.8136L1.00391 17.8232ZM17.5 1V1.5C26.3366 1.5 33.5 8.66344 33.5 17.5H34H34.5C34.5 8.11116 26.8888 0.5 17.5 0.5V1ZM34 17.5H33.5C33.5 17.6017 33.4974 17.7015 33.4952 17.8136L33.9951 17.8232L34.495 17.8328C34.497 17.73 34.5 17.6143 34.5 17.5H34ZM33.9951 17.8232L33.4953 17.8377C33.4975 17.9138 33.5 17.9499 33.5 18H34H34.5C34.5 17.9319 34.4961 17.8502 34.4949 17.8088L33.9951 17.8232ZM34 18H33.5V39H34H34.5V18H34ZM34 39H33.5C33.5 42.0376 31.0376 44.5 28 44.5V45V45.5C31.5899 45.5 34.5 42.5899 34.5 39H34ZM28 45V44.5H7V45V45.5H28V45ZM7 45V44.5C3.96243 44.5 1.5 42.0376 1.5 39H1H0.5C0.5 42.5899 3.41015 45.5 7 45.5V45ZM1 39H1.5V18H1H0.5V39H1ZM1 18H1.5C1.5 17.9503 1.50183 17.9023 1.5037 17.8377L1.00391 17.8232L0.504115 17.8088C0.502586 17.8616 0.5 17.9314 0.5 18H1ZM1.00391 17.8232L1.50381 17.8136C1.50175 17.7064 1.5 17.6028 1.5 17.5H1H0.5C0.5 17.6132 0.501928 17.7251 0.503999 17.8328L1.00391 17.8232ZM1 17.5H1.5C1.5 8.66344 8.66344 1.5 17.5 1.5V1V0.5C8.11116 0.5 0.5 8.11116 0.5 17.5H1Z" fill="#002B11"/>
<path d="M17.5 7.27051C12.0209 7.27051 7.57806 11.7133 7.57806 17.1925C7.57806 22.6716 12.0209 27.1144 17.5 27.1144C22.9792 27.1144 27.422 22.6716 27.422 17.1925C27.422 11.7133 22.9792 7.27051 17.5 7.27051ZM17.5 26.0051C12.6327 26.0051 8.68739 22.0598 8.68739 17.1925C8.68739 12.3252 12.6327 8.37984 17.5 8.37984C22.3673 8.37984 26.3113 12.3252 26.3113 17.1925C26.3113 22.0598 22.3659 26.0051 17.5 26.0051ZM15.291 17.865C15.291 18.5361 14.7467 19.079 14.0769 19.079C13.4058 19.079 12.8629 18.5361 12.8629 17.865C12.8629 17.1939 13.4058 16.6509 14.0769 16.6509C14.7467 16.6509 15.291 17.1952 15.291 17.865ZM22.1358 17.865C22.1358 18.5361 21.5915 19.079 20.9217 19.079C20.2506 19.079 19.7077 18.5361 19.7077 17.865C19.7077 17.1939 20.2506 16.6509 20.9217 16.6509C21.5928 16.6509 22.1358 17.1952 22.1358 17.865ZM23.2286 15.3362L24.3489 14.118H21.8657C20.6227 13.2692 19.122 12.7744 17.4986 12.7744C15.8767 12.7744 14.3801 13.2705 13.1385 14.118H10.6497L11.7701 15.3362C11.0838 15.9619 10.6539 16.8645 10.6539 17.8663C10.6539 19.757 12.1863 21.2894 14.0769 21.2894C14.9754 21.2894 15.7926 20.9435 16.4031 20.3772L17.5 21.5705L18.597 20.3772C19.2074 20.9435 20.0246 21.2894 20.9217 21.2894C22.8124 21.2894 24.3462 19.757 24.3462 17.8663C24.3462 16.8631 23.9149 15.9619 23.2286 15.3362ZM14.0756 20.1815C12.7967 20.1815 11.7591 19.1438 11.7591 17.865C11.7591 16.5861 12.7967 15.5485 14.0756 15.5485C15.3544 15.5485 16.3921 16.5861 16.3921 17.865C16.3921 19.1438 15.3558 20.1815 14.0756 20.1815ZM17.5 17.7988C17.5 16.2747 16.3907 14.9669 14.9286 14.4074C15.7196 14.0767 16.5878 13.8934 17.4986 13.8934C18.4095 13.8934 19.2791 14.0767 20.0701 14.4074C18.608 14.9669 17.5 16.2747 17.5 17.7988ZM20.9217 20.1815C19.6429 20.1815 18.6052 19.1438 18.6052 17.865C18.6052 16.5861 19.6429 15.5485 20.9217 15.5485C22.2006 15.5485 23.2382 16.5861 23.2382 17.865C23.2382 19.1438 22.2006 20.1815 20.9217 20.1815Z" fill="#002B11"/>
<path d="M9.64913 25.1397C9.64913 25.1397 9.14614 23.8788 7.78738 22.6027C6.42863 21.3266 4.71709 21.0937 4.71709 21.0937C4.71709 21.0937 5.32618 22.4539 6.77176 23.8126C8.21871 25.17 9.64913 25.1397 9.64913 25.1397Z" fill="#002B11"/>
<path d="M13.0737 27.0194C13.0737 27.0194 12.375 26.3387 11.1017 25.8426C9.82839 25.3465 8.61984 25.5877 8.61984 25.5877C8.61984 25.5877 9.41773 26.307 10.7737 26.8348C12.1284 27.364 13.0737 27.0194 13.0737 27.0194Z" fill="#002B11"/>
<path d="M16.3976 27.6933C16.3976 27.6933 15.6713 27.3942 14.5882 27.4314C13.505 27.4686 12.7016 28.0584 12.7016 28.0584C12.7016 28.0584 13.5119 28.3547 14.6654 28.3161C15.8202 28.2775 16.3976 27.6933 16.3976 27.6933Z" fill="#002B11"/>
<path d="M8.15122 22.0887C8.15122 22.0887 7.91695 20.7451 6.85171 19.2169C5.78648 17.6886 4.16589 17.114 4.16589 17.114C4.16589 17.114 4.48285 18.5775 5.61698 20.2049C6.75112 21.8324 8.15122 22.0887 8.15122 22.0887Z" fill="#002B11"/>
<path d="M6.81298 17.9945C6.81298 17.9945 7.07343 16.633 6.63521 14.8044C6.19699 12.9757 4.90989 11.8581 4.90989 11.8581C4.90989 11.8581 4.68389 13.3615 5.14967 15.3087C5.61683 17.2559 6.81298 17.9945 6.81298 17.9945Z" fill="#002B11"/>
<path d="M25.3495 25.1397C25.3495 25.1397 25.8525 23.8788 27.2113 22.6027C28.57 21.3266 30.2816 21.0937 30.2816 21.0937C30.2816 21.0937 29.6725 22.4539 28.2269 23.8126C26.78 25.17 25.3495 25.1397 25.3495 25.1397Z" fill="#002B11"/>
<path d="M21.9263 27.0194C21.9263 27.0194 22.625 26.3387 23.8983 25.8426C25.1717 25.3465 26.3802 25.5877 26.3802 25.5877C26.3802 25.5877 25.5823 26.307 24.2263 26.8348C22.8717 27.364 21.9263 27.0194 21.9263 27.0194Z" fill="#002B11"/>
<path d="M18.6025 27.6933C18.6025 27.6933 19.3288 27.3942 20.4119 27.4314C21.4951 27.4686 22.2985 28.0584 22.2985 28.0584C22.2985 28.0584 21.4882 28.3547 20.3347 28.3161C19.1799 28.2775 18.6025 27.6933 18.6025 27.6933Z" fill="#002B11"/>
<path d="M26.8489 22.0887C26.8489 22.0887 27.0832 20.7451 28.1484 19.2169C29.2136 17.6886 30.8342 17.114 30.8342 17.114C30.8342 17.114 30.5173 18.5775 29.3831 20.2049C28.249 21.8324 26.8489 22.0887 26.8489 22.0887Z" fill="#002B11"/>
<path d="M28.1868 17.9945C28.1868 17.9945 27.9263 16.633 28.3645 14.8044C28.8028 12.9757 30.0885 11.8581 30.0885 11.8581C30.0885 11.8581 30.3145 13.3615 29.8487 15.3087C29.3829 17.2559 28.1868 17.9945 28.1868 17.9945Z" fill="#002B11"/>
<path d="M17.5001 28.7295C17.8045 28.7295 18.0513 28.4828 18.0513 28.1783C18.0513 27.8739 17.8045 27.6271 17.5001 27.6271C17.1957 27.6271 16.9489 27.8739 16.9489 28.1783C16.9489 28.4828 17.1957 28.7295 17.5001 28.7295Z" fill="#002B11"/>
<path d="M4.54164 38.68L7.37364 35.812C7.71764 35.468 7.96164 35.18 8.10564 34.948C8.24964 34.708 8.32164 34.424 8.32164 34.096C8.32164 33.792 8.22564 33.544 8.03364 33.352C7.84964 33.16 7.60164 33.064 7.28964 33.064C6.96164 33.064 6.69764 33.164 6.49764 33.364C6.30564 33.556 6.20164 33.816 6.18564 34.144H4.51764C4.51764 33.608 4.63364 33.136 4.86564 32.728C5.09764 32.312 5.42164 31.992 5.83764 31.768C6.26164 31.544 6.75364 31.432 7.31364 31.432C8.18564 31.432 8.85764 31.668 9.32964 32.14C9.80964 32.604 10.0496 33.232 10.0496 34.024C10.0496 34.52 9.93764 34.984 9.71364 35.416C9.48964 35.84 9.13364 36.3 8.64564 36.796L7.09764 38.368H10.1456V40H4.54164V38.68ZM14.2566 40.168C13.6006 40.168 13.0086 40 12.4806 39.664C11.9606 39.328 11.5486 38.832 11.2446 38.176C10.9486 37.52 10.8006 36.728 10.8006 35.8C10.8006 34.872 10.9486 34.08 11.2446 33.424C11.5486 32.768 11.9606 32.272 12.4806 31.936C13.0086 31.6 13.6006 31.432 14.2566 31.432C14.9126 31.432 15.5006 31.6 16.0206 31.936C16.5486 32.272 16.9606 32.768 17.2566 33.424C17.5606 34.08 17.7126 34.872 17.7126 35.8C17.7126 36.728 17.5606 37.52 17.2566 38.176C16.9606 38.832 16.5486 39.328 16.0206 39.664C15.5006 40 14.9126 40.168 14.2566 40.168ZM14.2566 38.512C14.7606 38.512 15.1646 38.276 15.4686 37.804C15.7806 37.324 15.9366 36.656 15.9366 35.8C15.9366 34.944 15.7806 34.28 15.4686 33.808C15.1646 33.328 14.7606 33.088 14.2566 33.088C13.7526 33.088 13.3446 33.328 13.0326 33.808C12.7286 34.28 12.5766 34.944 12.5766 35.8C12.5766 36.656 12.7286 37.324 13.0326 37.804C13.3446 38.276 13.7526 38.512 14.2566 38.512ZM18.2409 38.68L21.0729 35.812C21.4169 35.468 21.6609 35.18 21.8049 34.948C21.9489 34.708 22.0209 34.424 22.0209 34.096C22.0209 33.792 21.9249 33.544 21.7329 33.352C21.5489 33.16 21.3009 33.064 20.9889 33.064C20.6609 33.064 20.3969 33.164 20.1969 33.364C20.0049 33.556 19.9009 33.816 19.8849 34.144H18.2169C18.2169 33.608 18.3329 33.136 18.5649 32.728C18.7969 32.312 19.1209 31.992 19.5369 31.768C19.9609 31.544 20.4529 31.432 21.0129 31.432C21.8849 31.432 22.5569 31.668 23.0289 32.14C23.5089 32.604 23.7489 33.232 23.7489 34.024C23.7489 34.52 23.6369 34.984 23.4129 35.416C23.1889 35.84 22.8329 36.3 22.3449 36.796L20.7969 38.368H23.8449V40H18.2409V38.68ZM27.8771 34.528C28.3731 34.528 28.8131 34.644 29.1971 34.876C29.5811 35.108 29.8811 35.436 30.0971 35.86C30.3211 36.276 30.4331 36.756 30.4331 37.3C30.4331 37.844 30.3051 38.336 30.0491 38.776C29.8011 39.208 29.4411 39.548 28.9691 39.796C28.5051 40.044 27.9691 40.168 27.3611 40.168C26.7451 40.168 26.2051 40.032 25.7411 39.76C25.2771 39.488 24.9171 39.124 24.6611 38.668C24.4131 38.212 24.2891 37.712 24.2891 37.168C24.2891 36.672 24.3691 36.22 24.5291 35.812C24.6971 35.404 24.9611 34.932 25.3211 34.396L27.2291 31.6H29.2331L27.0251 34.696C27.2891 34.584 27.5731 34.528 27.8771 34.528ZM27.3611 38.608C27.7291 38.608 28.0371 38.488 28.2851 38.248C28.5331 38.008 28.6571 37.692 28.6571 37.3C28.6571 36.908 28.5331 36.592 28.2851 36.352C28.0371 36.112 27.7291 35.992 27.3611 35.992C26.9931 35.992 26.6851 36.112 26.4371 36.352C26.1891 36.592 26.0651 36.908 26.0651 37.3C26.0651 37.692 26.1891 38.008 26.4371 38.248C26.6851 38.488 26.9931 38.608 27.3611 38.608Z" fill="#002B11"/>
</svg>
