<?xml version="1.0"?><svg xmlns="http://www.w3.org/2000/svg" style="background:#DFE1DF"><svg x="50%" y="50%" width="50" height="50" viewBox="0 0 40 40" xmlns="http://www.w3.org/2000/svg" overflow="visible"><g transform="translate(-20, -20)"><path d="M28.8 4.53333C32.4819 4.53333 35.4667 7.5181 35.4667 11.2C35.4667 14.8819 32.4819 17.8667 28.8 17.8667C25.1181 17.8667 22.1333 14.8819 22.1333 11.2C22.1333 7.5181 25.1181 4.53333 28.8 4.53333Z" fill="#F7F7F7"/><path fill-rule="evenodd" clip-rule="evenodd" d="M37.5717 0.00078125C38.9186 0.034925 40 1.13748 40 2.49258V37.5074L39.9992 37.5717C39.9656 38.8972 38.8972 39.9656 37.5717 39.9992L37.5074 40H2.49258L2.42826 39.9992C1.10276 39.9656 0.0343837 38.8972 0.00078125 37.5717L0 37.5074V2.49258C2.78546e-05 1.13748 1.08138 0.0349255 2.42826 0.00078125L2.49258 0H37.5074L37.5717 0.00078125ZM2.49258 2.4C2.44146 2.40003 2.40003 2.44146 2.4 2.49258V23.4285C4.22877 21.3137 6.98148 19.4667 10.6667 19.4667C17.9151 19.4667 19.4369 29.2834 37.6 30.0815V2.49258C37.6 2.44146 37.5585 2.40003 37.5074 2.4H2.49258Z" fill="#F7F7F7"/></g></svg></svg>